<!-- Generated by IcoMoon.io -->
<svg version="1.1" xmlns="http://www.w3.org/2000/svg" width="32" height="32" viewBox="0 0 32 32">
<title>logo-6</title>
<path  d="M16.086 15.408c-0.15-0.219-0.222-0.479-0.205-0.74v-1.072c0-0.329 0.068-0.579 0.204-0.749s0.37-0.256 0.701-0.255c0.311 0 0.532 0.073 0.663 0.218 0.142 0.186 0.212 0.413 0.196 0.641v0.252h-0.557v-0.255c0.002-0.084-0.003-0.167-0.016-0.25-0.008-0.057-0.036-0.109-0.080-0.148-0.057-0.043-0.129-0.063-0.202-0.058-0.076-0.005-0.152 0.016-0.212 0.061-0.049 0.044-0.081 0.101-0.092 0.164-0.016 0.088-0.023 0.176-0.022 0.265v1.301c-0.009 0.126 0.016 0.251 0.071 0.365 0.028 0.039 0.066 0.069 0.111 0.089s0.095 0.026 0.144 0.021c0.071 0.006 0.142-0.016 0.197-0.059 0.045-0.043 0.075-0.098 0.083-0.158 0.013-0.086 0.019-0.174 0.017-0.261v-0.264h0.557v0.241c0.016 0.239-0.052 0.476-0.192 0.674-0.128 0.159-0.346 0.239-0.666 0.239s-0.562-0.085-0.7-0.262z"></path>
<path  d="M18.404 15.419c-0.141-0.167-0.211-0.41-0.211-0.732v-1.128c0-0.319 0.070-0.56 0.211-0.723s0.376-0.245 0.705-0.244c0.327 0 0.561 0.081 0.702 0.244s0.212 0.405 0.212 0.723v1.128c0 0.319-0.071 0.563-0.214 0.731s-0.376 0.252-0.699 0.252c-0.324 0-0.564-0.085-0.705-0.251zM19.368 15.148c0.050-0.105 0.073-0.219 0.067-0.334v-1.381c0.006-0.113-0.016-0.225-0.066-0.327-0.028-0.039-0.068-0.071-0.114-0.090s-0.097-0.026-0.147-0.019c-0.050-0.007-0.101 0-0.147 0.019s-0.086 0.050-0.114 0.090c-0.051 0.102-0.074 0.215-0.067 0.327v1.388c-0.007 0.115 0.016 0.229 0.067 0.334 0.032 0.035 0.073 0.063 0.117 0.083s0.094 0.029 0.143 0.029c0.049 0 0.098-0.010 0.143-0.029s0.085-0.048 0.117-0.083v-0.007z"></path>
<path  d="M20.692 12.624h0.599l0.451 2.081 0.461-2.081h0.583l0.059 3.004h-0.431l-0.046-2.088-0.445 2.088h-0.346l-0.461-2.095-0.043 2.095h-0.436l0.054-3.004z"></path>
<path  d="M23.517 12.624h0.933c0.538 0 0.807 0.284 0.807 0.853 0 0.545-0.283 0.817-0.849 0.816h-0.318v1.335h-0.576l0.003-3.004zM24.314 13.908c0.057 0.007 0.115 0.002 0.169-0.014s0.105-0.044 0.147-0.080c0.066-0.101 0.095-0.221 0.083-0.339 0.003-0.092-0.006-0.183-0.028-0.273-0.008-0.030-0.023-0.058-0.042-0.082s-0.044-0.045-0.073-0.060c-0.080-0.036-0.168-0.053-0.257-0.048h-0.224v0.898h0.224z"></path>
<path  d="M26.088 12.624h0.619l0.635 3.004h-0.537l-0.126-0.693h-0.552l-0.129 0.693h-0.545l0.635-3.004zM26.616 14.588l-0.215-1.261-0.215 1.261h0.431z"></path>
<path  d="M27.854 12.624h0.403l0.772 1.714v-1.714h0.478v3.004h-0.384l-0.777-1.789v1.789h-0.494l0.001-3.004z"></path>
<path  d="M30.628 14.483l-0.642-1.854h0.54l0.392 1.191 0.368-1.191h0.529l-0.634 1.854v1.145h-0.553v-1.145z"></path>
<path  d="M16.976 16.942v0.157h-0.47v1.221h-0.197v-1.221h-0.472v-0.157h1.14z"></path>
<path  d="M18.45 18.32h-0.152c-0.015 0.001-0.031-0.004-0.043-0.013-0.012-0.008-0.020-0.019-0.025-0.032l-0.136-0.327h-0.652l-0.136 0.327c-0.004 0.014-0.011 0.026-0.021 0.037-0.012 0.009-0.027 0.014-0.043 0.013h-0.152l0.576-1.378h0.201l0.583 1.372zM17.496 17.808h0.544l-0.23-0.561c-0.017-0.042-0.031-0.086-0.043-0.13-0.008 0.026-0.015 0.051-0.022 0.073l-0.021 0.058-0.228 0.56z"></path>
<path  d="M19.443 18.184c0.036 0.002 0.072 0.002 0.108 0 0.031-0.003 0.062-0.009 0.092-0.016 0.028-0.007 0.056-0.015 0.083-0.025 0.025-0.010 0.051-0.022 0.077-0.034v-0.31h-0.23c-0.006 0-0.011-0-0.017-0.002s-0.010-0.005-0.014-0.009c-0.004-0.003-0.007-0.007-0.009-0.011s-0.003-0.009-0.003-0.014v-0.106h0.447v0.528c-0.037 0.025-0.075 0.047-0.115 0.065s-0.084 0.035-0.128 0.047c-0.047 0.013-0.095 0.023-0.144 0.028-0.056 0.006-0.112 0.009-0.168 0.009-0.099 0.001-0.198-0.017-0.29-0.051-0.086-0.033-0.165-0.082-0.23-0.144-0.064-0.063-0.115-0.137-0.149-0.218-0.036-0.091-0.054-0.188-0.053-0.286-0.001-0.098 0.016-0.196 0.052-0.288 0.033-0.082 0.084-0.156 0.149-0.218s0.144-0.111 0.23-0.143c0.099-0.035 0.203-0.053 0.309-0.051 0.054-0 0.107 0.004 0.16 0.012 0.047 0.007 0.093 0.019 0.137 0.035 0.040 0.014 0.079 0.033 0.115 0.055 0.035 0.022 0.069 0.046 0.1 0.072l-0.055 0.085c-0.004 0.008-0.011 0.014-0.019 0.019s-0.017 0.007-0.026 0.007c-0.013-0-0.025-0.004-0.036-0.011-0.017-0.009-0.036-0.020-0.056-0.033-0.025-0.015-0.050-0.027-0.077-0.037-0.034-0.013-0.070-0.023-0.106-0.031-0.048-0.008-0.097-0.012-0.146-0.012-0.076-0.001-0.151 0.012-0.222 0.038-0.064 0.024-0.122 0.062-0.169 0.109-0.048 0.050-0.084 0.108-0.107 0.171-0.052 0.149-0.052 0.31 0 0.459 0.025 0.065 0.064 0.124 0.115 0.173 0.047 0.047 0.105 0.084 0.168 0.109 0.073 0.024 0.151 0.033 0.228 0.027z"></path>
<path  d="M21.28 18.162h0.629v0.157h-0.822v-1.378h0.197l-0.005 1.221z"></path>
<path  d="M22.564 18.319h-0.197v-1.378h0.197v1.378z"></path>
<path  d="M23.297 16.948c0.012 0.006 0.022 0.015 0.030 0.025l0.842 1.039c-0.001-0.016-0.001-0.033 0-0.049 0-0.015 0-0.031 0-0.045v-0.982h0.172v1.383h-0.099c-0.015 0.001-0.029-0.002-0.043-0.008-0.012-0.007-0.023-0.016-0.031-0.026l-0.841-1.037c0 0.016 0 0.032 0 0.047s0 0.029 0 0.043v0.982h-0.165v-1.378h0.103c0.011 0 0.022 0.002 0.032 0.007z"></path>
<path  d="M25.791 16.942v0.152h-0.698v0.455h0.566v0.146h-0.566v0.47h0.698v0.152h-0.901v-1.375h0.901z"></path>
<path  d="M5.143 8.433l8.75 2.352v8.242l-8.75-2.351v-8.243zM4.582 7.73v9.346l9.871 2.654v-9.345l-9.871-2.655z"></path>
<path  d="M9.872 24.068l-9.872-2.656v-9.345l9.872 2.655v9.346z"></path>
<path  d="M4.745 8.327l8.636 2.322-3.672 3.478-8.637-2.324 3.674-3.477zM4.582 7.73l-4.582 4.337 9.872 2.655 4.581-4.337-9.871-2.655z"></path>
<path  d="M10.427 23.543l4.025-3.811-4.025-1.083v4.895z"></path>
</svg>
